<svg width="106" height="83" viewBox="0 0 106 83" fill="none" xmlns="http://www.w3.org/2000/svg">
<g clip-path="url(#clip0_8_13)">
<path d="M51.0767 3.75146L52.0166 15.2456H51.0767C50.1278 12.381 48.9014 10.2236 47.3975 8.77344C45.2311 6.67871 42.4471 5.63135 39.0454 5.63135C34.4084 5.63135 30.8813 7.46647 28.4644 11.1367C26.4412 14.234 25.4297 17.9222 25.4297 22.2012C25.4297 25.6745 26.1011 28.8434 27.4438 31.708C28.7866 34.5726 30.5412 36.6763 32.7075 38.019C34.8918 39.3439 37.1297 40.0063 39.4214 40.0063C40.7642 40.0063 42.0622 39.8363 43.3154 39.4961C44.5687 39.1559 45.7772 38.6546 46.9409 37.9922V27.4648C46.9409 25.6387 46.7977 24.4481 46.5112 23.8931C46.2427 23.3201 45.813 22.8905 45.2222 22.604C44.6493 22.2996 43.6287 22.1475 42.1606 22.1475V21.127H56.2598V22.1475H55.5884C54.1919 22.1475 53.234 22.613 52.7148 23.5439C52.3568 24.2064 52.1777 25.5133 52.1777 27.4648V38.6099C50.1188 39.7199 48.0868 40.5345 46.0815 41.0537C44.0763 41.5729 41.8473 41.8325 39.3945 41.8325C32.3584 41.8325 27.0142 39.5767 23.3618 35.0649C20.6226 31.6812 19.2529 27.7782 19.2529 23.356C19.2529 20.1512 20.0228 17.0807 21.5625 14.1445C23.3887 10.6533 25.8952 7.96777 29.082 6.08789C31.7497 4.53027 34.9007 3.75146 38.5352 3.75146C39.86 3.75146 41.0596 3.85889 42.1338 4.07373C43.2259 4.28857 44.7656 4.76302 46.7529 5.49707C47.7555 5.87305 48.4269 6.06104 48.7671 6.06104C49.1073 6.06104 49.3937 5.90885 49.6265 5.60449C49.8771 5.28223 50.0293 4.66455 50.083 3.75146H51.0767ZM82.2827 3.75146V16.3467H81.2891C80.9668 13.9297 80.3849 12.005 79.5435 10.5728C78.7199 9.14046 77.5382 8.00358 75.9985 7.16211C74.4588 6.32064 72.8654 5.8999 71.2183 5.8999C69.3563 5.8999 67.8166 6.47282 66.5991 7.61865C65.3817 8.74658 64.7729 10.0356 64.7729 11.4858C64.7729 12.5959 65.1579 13.6074 65.9277 14.5205C67.0378 15.8633 69.6785 17.6536 73.8501 19.8916C77.2518 21.7178 79.5703 23.1232 80.8057 24.1079C82.0589 25.0747 83.0168 26.2205 83.6792 27.5454C84.3595 28.8703 84.6997 30.2578 84.6997 31.708C84.6997 34.4652 83.6255 36.8464 81.4771 38.8516C79.3465 40.8389 76.5983 41.8325 73.2324 41.8325C72.1761 41.8325 71.1825 41.752 70.2515 41.5908C69.6965 41.5013 68.5417 41.179 66.7871 40.624C65.0505 40.0511 63.9494 39.7646 63.4839 39.7646C63.0363 39.7646 62.6782 39.8989 62.4097 40.1675C62.159 40.436 61.971 40.991 61.8457 41.8325H60.8521V29.3447H61.8457C62.3112 31.9587 62.9378 33.9191 63.7256 35.2261C64.5133 36.5151 65.7129 37.5894 67.3242 38.4487C68.9535 39.3081 70.7349 39.7378 72.6685 39.7378C74.9064 39.7378 76.6699 39.147 77.959 37.9653C79.266 36.7837 79.9194 35.3872 79.9194 33.7759C79.9194 32.8807 79.6688 31.9766 79.1675 31.0635C78.6841 30.1504 77.9232 29.3 76.8848 28.5122C76.1865 27.9751 74.2798 26.8382 71.1646 25.1016C68.0493 23.347 65.8293 21.9505 64.5044 20.9121C63.1974 19.8737 62.2038 18.7279 61.5234 17.4746C60.8431 16.2214 60.5029 14.8428 60.5029 13.3389C60.5029 10.7249 61.5055 8.47803 63.5107 6.59814C65.516 4.70036 68.0672 3.75146 71.1646 3.75146C73.0981 3.75146 75.1481 4.22591 77.3145 5.1748C78.3171 5.6224 79.0243 5.84619 79.436 5.84619C79.9015 5.84619 80.2775 5.71191 80.564 5.44336C80.8683 5.1569 81.11 4.59294 81.2891 3.75146H82.2827Z" fill="#1784B1"/>
<path d="M15.5684 71L7.125 52.6147V67.2134C7.125 68.5562 7.27002 69.394 7.56006 69.7271C7.95752 70.1782 8.58594 70.4038 9.44531 70.4038H10.2188V71H2.61328V70.4038H3.38672C4.31055 70.4038 4.96582 70.1245 5.35254 69.5659C5.58887 69.2222 5.70703 68.438 5.70703 67.2134V52.937C5.70703 51.9702 5.59961 51.272 5.38477 50.8423C5.23438 50.5308 4.95508 50.2729 4.54688 50.0688C4.14941 49.854 3.50488 49.7466 2.61328 49.7466V49.1504H8.80078L16.7285 66.2466L24.5273 49.1504H30.7148V49.7466H29.9575C29.0229 49.7466 28.3623 50.0259 27.9756 50.5845C27.7393 50.9282 27.6211 51.7124 27.6211 52.937V67.2134C27.6211 68.5562 27.7715 69.394 28.0723 69.7271C28.4697 70.1782 29.0981 70.4038 29.9575 70.4038H30.7148V71H21.4336V70.4038H22.207C23.1416 70.4038 23.7969 70.1245 24.1729 69.5659C24.4092 69.2222 24.5273 68.438 24.5273 67.2134V52.6147L16.1001 71H15.5684ZM34.9365 61.7993C34.9258 63.9907 35.4575 65.7095 36.5317 66.9556C37.606 68.2017 38.8682 68.8247 40.3184 68.8247C41.2852 68.8247 42.123 68.5615 42.832 68.0352C43.5518 67.498 44.1533 66.585 44.6367 65.2959L45.1362 65.6182C44.9106 67.0898 44.2554 68.4326 43.1704 69.6465C42.0854 70.8496 40.7266 71.4512 39.0938 71.4512C37.3213 71.4512 35.8013 70.7637 34.5337 69.3887C33.2769 68.0029 32.6484 66.1445 32.6484 63.8135C32.6484 61.2891 33.293 59.3232 34.582 57.916C35.8818 56.498 37.5093 55.7891 39.4644 55.7891C41.1187 55.7891 42.4775 56.3369 43.541 57.4326C44.6045 58.5176 45.1362 59.9731 45.1362 61.7993H34.9365ZM34.9365 60.8647H41.7686C41.7148 59.9194 41.6021 59.2534 41.4302 58.8667C41.1616 58.2651 40.7588 57.7925 40.2217 57.4487C39.6953 57.105 39.1421 56.9331 38.562 56.9331C37.6704 56.9331 36.8701 57.2822 36.1611 57.9805C35.4629 58.668 35.0547 59.6294 34.9365 60.8647ZM51.4849 48.0869V62.7661L55.2393 59.3501C56.0342 58.6196 56.4961 58.1577 56.625 57.9644C56.7109 57.8354 56.7539 57.7065 56.7539 57.5776C56.7539 57.3628 56.6626 57.1802 56.48 57.0298C56.3081 56.8687 56.0181 56.7773 55.6099 56.7559V56.2402H62.0229V56.7559C61.1421 56.7773 60.4062 56.9116 59.8154 57.1587C59.2354 57.4058 58.5962 57.8462 57.8979 58.48L54.1113 61.9766L57.8979 66.7622C58.9507 68.0835 59.6597 68.9214 60.0249 69.2759C60.5405 69.7808 60.9917 70.1084 61.3784 70.2588C61.647 70.3662 62.1143 70.4199 62.7803 70.4199V71H55.6099V70.4199C56.0181 70.4092 56.292 70.3501 56.4316 70.2427C56.582 70.1245 56.6572 69.9634 56.6572 69.7593C56.6572 69.5122 56.4424 69.1147 56.0127 68.5669L51.4849 62.7822V67.6807C51.4849 68.6367 51.5493 69.2651 51.6782 69.5659C51.8179 69.8667 52.0112 70.0815 52.2583 70.2104C52.5054 70.3394 53.0425 70.4092 53.8696 70.4199V71H46.3608V70.4199C47.1128 70.4199 47.6768 70.3286 48.0527 70.146C48.2783 70.0278 48.4502 69.8452 48.5684 69.5981C48.7295 69.2437 48.8101 68.6313 48.8101 67.7612V54.3228C48.8101 52.6147 48.7725 51.5728 48.6973 51.1968C48.6221 50.8101 48.4985 50.5469 48.3267 50.4072C48.1548 50.2568 47.9292 50.1816 47.6499 50.1816C47.4243 50.1816 47.0859 50.2729 46.6348 50.4556L46.3608 49.8916L50.7437 48.0869H51.4849ZM67.9043 51.3901V56.2402H71.3525V57.3682H67.9043V66.9395C67.9043 67.8955 68.0386 68.54 68.3071 68.873C68.5864 69.2061 68.9409 69.3726 69.3706 69.3726C69.7251 69.3726 70.0688 69.2651 70.4019 69.0503C70.7349 68.8247 70.9927 68.4971 71.1753 68.0674H71.8037C71.4277 69.1201 70.896 69.915 70.2085 70.4521C69.521 70.9785 68.812 71.2417 68.0815 71.2417C67.5874 71.2417 67.104 71.1074 66.6313 70.8389C66.1587 70.5596 65.8096 70.1675 65.584 69.6626C65.3584 69.147 65.2456 68.3574 65.2456 67.2939V57.3682H62.9092V56.8364C63.5 56.6001 64.1016 56.2026 64.7139 55.644C65.3369 55.0747 65.8901 54.4033 66.3735 53.6299C66.6206 53.2217 66.9644 52.4751 67.4048 51.3901H67.9043ZM75.2842 61.7993C75.2734 63.9907 75.8052 65.7095 76.8794 66.9556C77.9536 68.2017 79.2158 68.8247 80.666 68.8247C81.6328 68.8247 82.4707 68.5615 83.1797 68.0352C83.8994 67.498 84.501 66.585 84.9844 65.2959L85.4839 65.6182C85.2583 67.0898 84.603 68.4326 83.5181 69.6465C82.4331 70.8496 81.0742 71.4512 79.4414 71.4512C77.6689 71.4512 76.1489 70.7637 74.8813 69.3887C73.6245 68.0029 72.9961 66.1445 72.9961 63.8135C72.9961 61.2891 73.6406 59.3232 74.9297 57.916C76.2295 56.498 77.8569 55.7891 79.812 55.7891C81.4663 55.7891 82.8252 56.3369 83.8887 57.4326C84.9521 58.5176 85.4839 59.9731 85.4839 61.7993H75.2842ZM75.2842 60.8647H82.1162C82.0625 59.9194 81.9497 59.2534 81.7778 58.8667C81.5093 58.2651 81.1064 57.7925 80.5693 57.4487C80.043 57.105 79.4897 56.9331 78.9097 56.9331C78.0181 56.9331 77.2178 57.2822 76.5088 57.9805C75.8105 58.668 75.4023 59.6294 75.2842 60.8647ZM86.4023 57.7065L90.9463 55.8696H91.5586V59.3179C92.3213 58.0181 93.084 57.1104 93.8467 56.5947C94.6201 56.0684 95.4312 55.8052 96.2798 55.8052C97.7622 55.8052 98.9976 56.3853 99.9858 57.5454C101.2 58.9634 101.807 60.811 101.807 63.0884C101.807 65.6343 101.076 67.7397 99.6152 69.4048C98.4121 70.769 96.8975 71.4512 95.0713 71.4512C94.2764 71.4512 93.5889 71.3384 93.0088 71.1128C92.5791 70.9517 92.0957 70.6294 91.5586 70.146V74.6416C91.5586 75.6514 91.6177 76.2905 91.7358 76.5591C91.8647 76.8384 92.0796 77.0586 92.3804 77.2197C92.6919 77.3809 93.2505 77.4614 94.0562 77.4614V78.0576H86.3218V77.4614H86.7246C87.3154 77.4722 87.8203 77.3594 88.2393 77.123C88.4434 77.0049 88.5991 76.8115 88.7065 76.543C88.8247 76.2852 88.8838 75.6191 88.8838 74.5449V60.5908C88.8838 59.6348 88.8408 59.0278 88.7549 58.77C88.6689 58.5122 88.5293 58.3188 88.3359 58.1899C88.1533 58.061 87.9009 57.9966 87.5786 57.9966C87.3208 57.9966 86.9932 58.0718 86.5957 58.2222L86.4023 57.7065ZM91.5586 60.2686V65.7793C91.5586 66.9717 91.6069 67.7559 91.7036 68.1318C91.854 68.7549 92.2192 69.3027 92.7993 69.7754C93.3901 70.248 94.1313 70.4844 95.0229 70.4844C96.0972 70.4844 96.9673 70.0654 97.6333 69.2275C98.5034 68.1318 98.9385 66.5903 98.9385 64.603C98.9385 62.3472 98.4443 60.6123 97.4561 59.3984C96.7686 58.5605 95.9521 58.1416 95.0068 58.1416C94.4912 58.1416 93.981 58.2705 93.4761 58.5283C93.0894 58.7217 92.4502 59.3018 91.5586 60.2686Z" fill="#1784B1"/>
</g>
<defs>
<clipPath id="clip0_8_13">
<rect width="106" height="83" fill="white"/>
</clipPath>
</defs>
</svg>
