<svg width="286" height="160" viewBox="0 0 286 160" fill="none" xmlns="http://www.w3.org/2000/svg">
<path d="M42 41H244V39H42V41ZM245 42V117H247V42H245ZM244 118H42V120H244V118ZM41 117V42H39V117H41ZM42 118C41.4477 118 41 117.552 41 117H39C39 118.657 40.3432 120 42 120V118ZM245 117C245 117.552 244.552 118 244 118V120C245.657 120 247 118.657 247 117H245ZM244 41C244.552 41 245 41.4477 245 42H247C247 40.3431 245.657 39 244 39V41ZM42 39C40.3431 39 39 40.3431 39 42H41C41 41.4477 41.4477 41 42 41V39Z" fill="white" fill-opacity="0.1"/>
<g clip-path="url(#clip0_0_1)">
<path d="M93.0767 57.7515L94.0166 69.2456H93.0767C92.1278 66.381 90.9014 64.2236 89.3975 62.7734C87.2311 60.6787 84.4471 59.6313 81.0454 59.6313C76.4084 59.6313 72.8813 61.4665 70.4644 65.1367C68.4412 68.234 67.4297 71.9222 67.4297 76.2012C67.4297 79.6745 68.1011 82.8434 69.4438 85.708C70.7866 88.5726 72.5412 90.6763 74.7075 92.019C76.8918 93.3439 79.1297 94.0063 81.4214 94.0063C82.7642 94.0063 84.0622 93.8363 85.3154 93.4961C86.5687 93.1559 87.7772 92.6546 88.9409 91.9922V81.4648C88.9409 79.6387 88.7977 78.4481 88.5112 77.8931C88.2427 77.3201 87.813 76.8905 87.2222 76.604C86.6493 76.2996 85.6287 76.1475 84.1606 76.1475V75.127H98.2598V76.1475H97.5884C96.1919 76.1475 95.234 76.613 94.7148 77.5439C94.3568 78.2064 94.1777 79.5133 94.1777 81.4648V92.6099C92.1188 93.7199 90.0868 94.5345 88.0815 95.0537C86.0763 95.5729 83.8473 95.8325 81.3945 95.8325C74.3584 95.8325 69.0142 93.5767 65.3618 89.0649C62.6226 85.6812 61.2529 81.7782 61.2529 77.356C61.2529 74.1512 62.0228 71.0807 63.5625 68.1445C65.3887 64.6533 67.8952 61.9678 71.082 60.0879C73.7497 58.5303 76.9007 57.7515 80.5352 57.7515C81.86 57.7515 83.0596 57.8589 84.1338 58.0737C85.2259 58.2886 86.7656 58.763 88.7529 59.4971C89.7555 59.873 90.4269 60.061 90.7671 60.061C91.1073 60.061 91.3937 59.9089 91.6265 59.6045C91.8771 59.2822 92.0293 58.6646 92.083 57.7515H93.0767ZM124.283 57.7515V70.3467H123.289C122.967 67.9297 122.385 66.005 121.543 64.5728C120.72 63.1405 119.538 62.0036 117.999 61.1621C116.459 60.3206 114.865 59.8999 113.218 59.8999C111.356 59.8999 109.817 60.4728 108.599 61.6187C107.382 62.7466 106.773 64.0356 106.773 65.4858C106.773 66.5959 107.158 67.6074 107.928 68.5205C109.038 69.8633 111.679 71.6536 115.85 73.8916C119.252 75.7178 121.57 77.1232 122.806 78.1079C124.059 79.0747 125.017 80.2205 125.679 81.5454C126.36 82.8703 126.7 84.2578 126.7 85.708C126.7 88.4652 125.625 90.8464 123.477 92.8516C121.347 94.8389 118.598 95.8325 115.232 95.8325C114.176 95.8325 113.182 95.752 112.251 95.5908C111.696 95.5013 110.542 95.179 108.787 94.624C107.05 94.0511 105.949 93.7646 105.484 93.7646C105.036 93.7646 104.678 93.8989 104.41 94.1675C104.159 94.436 103.971 94.991 103.846 95.8325H102.852V83.3447H103.846C104.311 85.9587 104.938 87.9191 105.726 89.2261C106.513 90.5151 107.713 91.5894 109.324 92.4487C110.953 93.3081 112.735 93.7378 114.668 93.7378C116.906 93.7378 118.67 93.147 119.959 91.9653C121.266 90.7837 121.919 89.3872 121.919 87.7759C121.919 86.8807 121.669 85.9766 121.167 85.0635C120.684 84.1504 119.923 83.3 118.885 82.5122C118.187 81.9751 116.28 80.8382 113.165 79.1016C110.049 77.347 107.829 75.9505 106.504 74.9121C105.197 73.8737 104.204 72.7279 103.523 71.4746C102.843 70.2214 102.503 68.8428 102.503 67.3389C102.503 64.7249 103.506 62.478 105.511 60.5981C107.516 58.7004 110.067 57.7515 113.165 57.7515C115.098 57.7515 117.148 58.2259 119.314 59.1748C120.317 59.6224 121.024 59.8462 121.436 59.8462C121.902 59.8462 122.278 59.7119 122.564 59.4434C122.868 59.1569 123.11 58.5929 123.289 57.7515H124.283Z" fill="black"/>
<path d="M137.316 76.9473C138.391 75.873 139.024 75.2554 139.218 75.0942C139.701 74.686 140.222 74.3691 140.781 74.1436C141.339 73.918 141.893 73.8052 142.44 73.8052C143.364 73.8052 144.159 74.0737 144.825 74.6108C145.491 75.1479 145.937 75.9268 146.163 76.9473C147.269 75.6582 148.204 74.8149 148.966 74.4175C149.729 74.0093 150.513 73.8052 151.319 73.8052C152.103 73.8052 152.796 74.0093 153.397 74.4175C154.01 74.8149 154.493 75.4702 154.848 76.3833C155.084 77.0063 155.202 77.9839 155.202 79.3159V85.6646C155.202 86.5884 155.272 87.2222 155.412 87.5659C155.519 87.8022 155.718 88.0063 156.008 88.1782C156.298 88.3394 156.771 88.4199 157.426 88.4199V89H150.143V88.4199H150.449C151.083 88.4199 151.577 88.2964 151.931 88.0493C152.178 87.8774 152.355 87.6035 152.463 87.2275C152.506 87.0449 152.527 86.5239 152.527 85.6646V79.3159C152.527 78.1128 152.382 77.2642 152.092 76.77C151.673 76.0825 151.002 75.7388 150.078 75.7388C149.509 75.7388 148.934 75.8838 148.354 76.1738C147.785 76.4531 147.092 76.9795 146.275 77.7529L146.243 77.9302L146.275 78.623V85.6646C146.275 86.6743 146.329 87.3027 146.437 87.5498C146.555 87.7969 146.77 88.0063 147.081 88.1782C147.393 88.3394 147.924 88.4199 148.676 88.4199V89H141.216V88.4199C142.032 88.4199 142.591 88.3232 142.892 88.1299C143.203 87.9365 143.418 87.6465 143.536 87.2598C143.59 87.0771 143.617 86.5454 143.617 85.6646V79.3159C143.617 78.1128 143.439 77.248 143.085 76.7217C142.612 76.0342 141.952 75.6904 141.103 75.6904C140.523 75.6904 139.948 75.8462 139.379 76.1577C138.487 76.6304 137.8 77.1621 137.316 77.7529V85.6646C137.316 86.6313 137.381 87.2598 137.51 87.5498C137.649 87.8398 137.848 88.0601 138.106 88.2104C138.375 88.3501 138.912 88.4199 139.717 88.4199V89H132.418V88.4199C133.095 88.4199 133.567 88.3501 133.836 88.2104C134.104 88.0601 134.309 87.8291 134.448 87.5176C134.588 87.1953 134.658 86.5776 134.658 85.6646V80.0249C134.658 78.4028 134.609 77.3555 134.513 76.8828C134.438 76.5283 134.319 76.2866 134.158 76.1577C133.997 76.0181 133.777 75.9482 133.498 75.9482C133.197 75.9482 132.837 76.0288 132.418 76.1899L132.176 75.6099L136.624 73.8052H137.316V76.9473ZM161.1 79.7993C161.089 81.9907 161.621 83.7095 162.695 84.9556C163.769 86.2017 165.031 86.8247 166.481 86.8247C167.448 86.8247 168.286 86.5615 168.995 86.0352C169.715 85.498 170.316 84.585 170.8 83.2959L171.299 83.6182C171.074 85.0898 170.418 86.4326 169.333 87.6465C168.249 88.8496 166.89 89.4512 165.257 89.4512C163.484 89.4512 161.964 88.7637 160.697 87.3887C159.44 86.0029 158.812 84.1445 158.812 81.8135C158.812 79.2891 159.456 77.3232 160.745 75.916C162.045 74.498 163.672 73.7891 165.627 73.7891C167.282 73.7891 168.641 74.3369 169.704 75.4326C170.768 76.5176 171.299 77.9731 171.299 79.7993H161.1ZM161.1 78.8647H167.932C167.878 77.9194 167.765 77.2534 167.593 76.8667C167.325 76.2651 166.922 75.7925 166.385 75.4487C165.858 75.105 165.305 74.9331 164.725 74.9331C163.833 74.9331 163.033 75.2822 162.324 75.9805C161.626 76.668 161.218 77.6294 161.1 78.8647ZM177.648 66.0869V80.7661L181.402 77.3501C182.197 76.6196 182.659 76.1577 182.788 75.9644C182.874 75.8354 182.917 75.7065 182.917 75.5776C182.917 75.3628 182.826 75.1802 182.643 75.0298C182.471 74.8687 182.181 74.7773 181.773 74.7559V74.2402H188.186V74.7559C187.305 74.7773 186.569 74.9116 185.979 75.1587C185.398 75.4058 184.759 75.8462 184.061 76.48L180.274 79.9766L184.061 84.7622C185.114 86.0835 185.823 86.9214 186.188 87.2759C186.704 87.7808 187.155 88.1084 187.542 88.2588C187.81 88.3662 188.277 88.4199 188.943 88.4199V89H181.773V88.4199C182.181 88.4092 182.455 88.3501 182.595 88.2427C182.745 88.1245 182.82 87.9634 182.82 87.7593C182.82 87.5122 182.605 87.1147 182.176 86.5669L177.648 80.7822V85.6807C177.648 86.6367 177.712 87.2651 177.841 87.5659C177.981 87.8667 178.174 88.0815 178.421 88.2104C178.668 88.3394 179.206 88.4092 180.033 88.4199V89H172.524V88.4199C173.276 88.4199 173.84 88.3286 174.216 88.146C174.441 88.0278 174.613 87.8452 174.731 87.5981C174.893 87.2437 174.973 86.6313 174.973 85.7612V72.3228C174.973 70.6147 174.936 69.5728 174.86 69.1968C174.785 68.8101 174.662 68.5469 174.49 68.4072C174.318 68.2568 174.092 68.1816 173.813 68.1816C173.587 68.1816 173.249 68.2729 172.798 68.4556L172.524 67.8916L176.907 66.0869H177.648ZM194.067 69.3901V74.2402H197.516V75.3682H194.067V84.9395C194.067 85.8955 194.202 86.54 194.47 86.873C194.75 87.2061 195.104 87.3726 195.534 87.3726C195.888 87.3726 196.232 87.2651 196.565 87.0503C196.898 86.8247 197.156 86.4971 197.338 86.0674H197.967C197.591 87.1201 197.059 87.915 196.372 88.4521C195.684 88.9785 194.975 89.2417 194.245 89.2417C193.75 89.2417 193.267 89.1074 192.794 88.8389C192.322 88.5596 191.973 88.1675 191.747 87.6626C191.521 87.147 191.409 86.3574 191.409 85.2939V75.3682H189.072V74.8364C189.663 74.6001 190.265 74.2026 190.877 73.644C191.5 73.0747 192.053 72.4033 192.537 71.6299C192.784 71.2217 193.127 70.4751 193.568 69.3901H194.067ZM201.447 79.7993C201.437 81.9907 201.968 83.7095 203.042 84.9556C204.117 86.2017 205.379 86.8247 206.829 86.8247C207.796 86.8247 208.634 86.5615 209.343 86.0352C210.062 85.498 210.664 84.585 211.147 83.2959L211.647 83.6182C211.421 85.0898 210.766 86.4326 209.681 87.6465C208.596 88.8496 207.237 89.4512 205.604 89.4512C203.832 89.4512 202.312 88.7637 201.044 87.3887C199.788 86.0029 199.159 84.1445 199.159 81.8135C199.159 79.2891 199.804 77.3232 201.093 75.916C202.393 74.498 204.02 73.7891 205.975 73.7891C207.629 73.7891 208.988 74.3369 210.052 75.4326C211.115 76.5176 211.647 77.9731 211.647 79.7993H201.447ZM201.447 78.8647H208.279C208.226 77.9194 208.113 77.2534 207.941 76.8667C207.672 76.2651 207.27 75.7925 206.732 75.4487C206.206 75.105 205.653 74.9331 205.073 74.9331C204.181 74.9331 203.381 75.2822 202.672 75.9805C201.974 76.668 201.565 77.6294 201.447 78.8647ZM212.565 75.7065L217.109 73.8696H217.722V77.3179C218.484 76.0181 219.247 75.1104 220.01 74.5947C220.783 74.0684 221.594 73.8052 222.443 73.8052C223.925 73.8052 225.161 74.3853 226.149 75.5454C227.363 76.9634 227.97 78.811 227.97 81.0884C227.97 83.6343 227.239 85.7397 225.778 87.4048C224.575 88.769 223.061 89.4512 221.234 89.4512C220.439 89.4512 219.752 89.3384 219.172 89.1128C218.742 88.9517 218.259 88.6294 217.722 88.146V92.6416C217.722 93.6514 217.781 94.2905 217.899 94.5591C218.028 94.8384 218.243 95.0586 218.543 95.2197C218.855 95.3809 219.414 95.4614 220.219 95.4614V96.0576H212.485V95.4614H212.888C213.479 95.4722 213.983 95.3594 214.402 95.123C214.606 95.0049 214.762 94.8115 214.87 94.543C214.988 94.2852 215.047 93.6191 215.047 92.5449V78.5908C215.047 77.6348 215.004 77.0278 214.918 76.77C214.832 76.5122 214.692 76.3188 214.499 76.1899C214.316 76.061 214.064 75.9966 213.742 75.9966C213.484 75.9966 213.156 76.0718 212.759 76.2222L212.565 75.7065ZM217.722 78.2686V83.7793C217.722 84.9717 217.77 85.7559 217.867 86.1318C218.017 86.7549 218.382 87.3027 218.962 87.7754C219.553 88.248 220.294 88.4844 221.186 88.4844C222.26 88.4844 223.13 88.0654 223.796 87.2275C224.667 86.1318 225.102 84.5903 225.102 82.603C225.102 80.3472 224.607 78.6123 223.619 77.3984C222.932 76.5605 222.115 76.1416 221.17 76.1416C220.654 76.1416 220.144 76.2705 219.639 76.5283C219.252 76.7217 218.613 77.3018 217.722 78.2686Z" fill="black"/>
</g>
<rect x="40" y="4" width="60.9219" height="30" rx="3" fill="black"/>
<rect x="40.5" y="4.5" width="59.9219" height="29" rx="2.5" stroke="black" stroke-opacity="0.14902"/>
<path d="M51.3438 16C51.2969 15.6042 51.1068 15.2969 50.7734 15.0781C50.4401 14.8594 50.0313 14.75 49.5469 14.75C49.1927 14.75 48.8828 14.8073 48.6172 14.9219C48.3542 15.0365 48.1484 15.194 48 15.3945C47.8542 15.5951 47.7813 15.8229 47.7813 16.0781C47.7813 16.2917 47.832 16.4753 47.9336 16.6289C48.0378 16.7799 48.1706 16.9062 48.332 17.0078C48.4935 17.1068 48.6628 17.1888 48.8398 17.2539C49.0169 17.3164 49.1797 17.3672 49.3281 17.4062L50.1406 17.625C50.349 17.6797 50.5807 17.7552 50.8359 17.8516C51.0938 17.9479 51.3398 18.0794 51.5742 18.2461C51.8112 18.4102 52.0065 18.6211 52.1602 18.8789C52.3138 19.1367 52.3906 19.4531 52.3906 19.8281C52.3906 20.2604 52.2773 20.651 52.0508 21C51.8268 21.349 51.4987 21.6263 51.0664 21.832C50.6367 22.0378 50.1146 22.1406 49.5 22.1406C48.9271 22.1406 48.431 22.0482 48.0117 21.8633C47.5951 21.6784 47.2669 21.4206 47.0273 21.0898C46.7904 20.7591 46.6563 20.375 46.625 19.9375H47.625C47.651 20.2396 47.7526 20.4896 47.9297 20.6875C48.1094 20.8828 48.3359 21.0286 48.6094 21.125C48.8854 21.2187 49.1823 21.2656 49.5 21.2656C49.8698 21.2656 50.2018 21.2057 50.4961 21.0859C50.7904 20.9635 51.0234 20.7943 51.1953 20.5781C51.3672 20.3594 51.4531 20.1042 51.4531 19.8125C51.4531 19.5469 51.3789 19.3307 51.2305 19.1641C51.082 18.9974 50.8867 18.862 50.6445 18.7578C50.4023 18.6536 50.1406 18.5625 49.8594 18.4844L48.875 18.2031C48.25 18.0234 47.7552 17.7669 47.3906 17.4336C47.026 17.1003 46.8438 16.6641 46.8438 16.125C46.8438 15.6771 46.9648 15.2865 47.207 14.9531C47.4518 14.6172 47.7799 14.3568 48.1914 14.1719C48.6055 13.9844 49.0677 13.8906 49.5781 13.8906C50.0938 13.8906 50.5521 13.9831 50.9531 14.168C51.3542 14.3503 51.6719 14.6003 51.9062 14.918C52.1432 15.2357 52.2682 15.5964 52.2813 16H51.3438ZM56.374 22.125C55.7959 22.125 55.2972 21.9974 54.8779 21.7422C54.4613 21.4844 54.1396 21.125 53.9131 20.6641C53.6891 20.2005 53.5771 19.6615 53.5771 19.0469C53.5771 18.4323 53.6891 17.8906 53.9131 17.4219C54.1396 16.9505 54.4548 16.5833 54.8584 16.3203C55.2646 16.0547 55.7386 15.9219 56.2803 15.9219C56.5928 15.9219 56.9014 15.974 57.2061 16.0781C57.5107 16.1823 57.7881 16.3516 58.0381 16.5859C58.2881 16.8177 58.4873 17.125 58.6357 17.5078C58.7842 17.8906 58.8584 18.362 58.8584 18.9219V19.3125H54.2334V18.5156H57.9209C57.9209 18.1771 57.8532 17.875 57.7178 17.6094C57.585 17.3437 57.3949 17.1341 57.1475 16.9805C56.9027 16.8268 56.6136 16.75 56.2803 16.75C55.9131 16.75 55.5954 16.8411 55.3271 17.0234C55.0615 17.2031 54.8571 17.4375 54.7139 17.7266C54.5706 18.0156 54.499 18.3255 54.499 18.6562V19.1875C54.499 19.6406 54.5771 20.0247 54.7334 20.3398C54.8923 20.6523 55.1123 20.8906 55.3936 21.0547C55.6748 21.2161 56.0016 21.2969 56.374 21.2969C56.6162 21.2969 56.835 21.263 57.0303 21.1953C57.2282 21.125 57.3988 21.0208 57.542 20.8828C57.6852 20.7422 57.7959 20.5677 57.874 20.3594L58.7646 20.6094C58.6709 20.9115 58.5133 21.1771 58.292 21.4062C58.0706 21.6328 57.7972 21.8099 57.4717 21.9375C57.1462 22.0625 56.7803 22.125 56.374 22.125ZM62.6982 22.125C62.1357 22.125 61.6514 21.9922 61.2451 21.7266C60.8389 21.4609 60.5264 21.0951 60.3076 20.6289C60.0889 20.1628 59.9795 19.6302 59.9795 19.0312C59.9795 18.4219 60.0915 17.8841 60.3154 17.418C60.542 16.9492 60.8571 16.5833 61.2607 16.3203C61.667 16.0547 62.141 15.9219 62.6826 15.9219C63.1045 15.9219 63.4847 16 63.8232 16.1562C64.1618 16.3125 64.4391 16.5312 64.6553 16.8125C64.8714 17.0937 65.0055 17.4219 65.0576 17.7969H64.1357C64.0654 17.5234 63.9092 17.2812 63.667 17.0703C63.4274 16.8568 63.1045 16.75 62.6982 16.75C62.3389 16.75 62.0238 16.8437 61.7529 17.0312C61.4847 17.2161 61.2751 17.4779 61.124 17.8164C60.9756 18.1523 60.9014 18.5469 60.9014 19C60.9014 19.4635 60.9743 19.8672 61.1201 20.2109C61.2686 20.5547 61.4769 20.8216 61.7451 21.0117C62.016 21.2018 62.3337 21.2969 62.6982 21.2969C62.9378 21.2969 63.1553 21.2552 63.3506 21.1719C63.5459 21.0885 63.7113 20.9688 63.8467 20.8125C63.9821 20.6562 64.0785 20.4687 64.1357 20.25H65.0576C65.0055 20.6042 64.8766 20.9232 64.6709 21.207C64.4678 21.4883 64.1982 21.7122 63.8623 21.8789C63.529 22.043 63.141 22.125 62.6982 22.125ZM69.0146 16V16.7812H65.9053V16H69.0146ZM66.8115 14.5625H67.7334V20.2812C67.7334 20.5417 67.7712 20.737 67.8467 20.8672C67.9248 20.9948 68.0238 21.0807 68.1436 21.125C68.266 21.1667 68.3949 21.1875 68.5303 21.1875C68.6318 21.1875 68.7152 21.1823 68.7803 21.1719C68.8454 21.1589 68.8975 21.1484 68.9365 21.1406L69.124 21.9687C69.0615 21.9922 68.9743 22.0156 68.8623 22.0391C68.7503 22.0651 68.6084 22.0781 68.4365 22.0781C68.1761 22.0781 67.9209 22.0221 67.6709 21.9102C67.4235 21.7982 67.2178 21.6276 67.0537 21.3984C66.8923 21.1693 66.8115 20.8802 66.8115 20.5312V14.5625ZM70.4014 22V16H71.3232V22H70.4014ZM70.8701 15C70.6904 15 70.5355 14.9388 70.4053 14.8164C70.2777 14.694 70.2139 14.5469 70.2139 14.375C70.2139 14.2031 70.2777 14.056 70.4053 13.9336C70.5355 13.8112 70.6904 13.75 70.8701 13.75C71.0498 13.75 71.2035 13.8112 71.3311 13.9336C71.4613 14.056 71.5264 14.2031 71.5264 14.375C71.5264 14.5469 71.4613 14.694 71.3311 14.8164C71.2035 14.9388 71.0498 15 70.8701 15ZM75.4492 22.125C74.9076 22.125 74.4323 21.9961 74.0234 21.7383C73.6172 21.4805 73.2995 21.1198 73.0703 20.6562C72.8438 20.1927 72.7305 19.651 72.7305 19.0312C72.7305 18.4062 72.8438 17.8607 73.0703 17.3945C73.2995 16.9284 73.6172 16.5664 74.0234 16.3086C74.4323 16.0508 74.9076 15.9219 75.4492 15.9219C75.9909 15.9219 76.4648 16.0508 76.8711 16.3086C77.2799 16.5664 77.5977 16.9284 77.8242 17.3945C78.0534 17.8607 78.168 18.4062 78.168 19.0312C78.168 19.651 78.0534 20.1927 77.8242 20.6562C77.5977 21.1198 77.2799 21.4805 76.8711 21.7383C76.4648 21.9961 75.9909 22.125 75.4492 22.125ZM75.4492 21.2969C75.8607 21.2969 76.1992 21.1914 76.4648 20.9805C76.7305 20.7695 76.9271 20.4922 77.0547 20.1484C77.1823 19.8047 77.2461 19.4323 77.2461 19.0312C77.2461 18.6302 77.1823 18.2565 77.0547 17.9102C76.9271 17.5638 76.7305 17.2839 76.4648 17.0703C76.1992 16.8568 75.8607 16.75 75.4492 16.75C75.0378 16.75 74.6992 16.8568 74.4336 17.0703C74.168 17.2839 73.9714 17.5638 73.8438 17.9102C73.7161 18.2565 73.6523 18.6302 73.6523 19.0312C73.6523 19.4323 73.7161 19.8047 73.8438 20.1484C73.9714 20.4922 74.168 20.7695 74.4336 20.9805C74.6992 21.1914 75.0378 21.2969 75.4492 21.2969ZM80.4971 18.3906V22H79.5752V16H80.4658V16.9375H80.5439C80.6846 16.6328 80.8981 16.388 81.1846 16.2031C81.471 16.0156 81.8408 15.9219 82.2939 15.9219C82.7002 15.9219 83.0557 16.0052 83.3604 16.1719C83.665 16.3359 83.902 16.5859 84.0713 16.9219C84.2406 17.2552 84.3252 17.6771 84.3252 18.1875V22H83.4033V18.25C83.4033 17.7786 83.2809 17.4115 83.0361 17.1484C82.7913 16.8828 82.4554 16.75 82.0283 16.75C81.734 16.75 81.471 16.8138 81.2393 16.9414C81.0101 17.069 80.8291 17.2552 80.6963 17.5C80.5635 17.7448 80.4971 18.0417 80.4971 18.3906ZM89.0879 22V21.2969L91.7285 18.4062C92.0384 18.0677 92.2936 17.7734 92.4941 17.5234C92.6947 17.2708 92.8431 17.0339 92.9395 16.8125C93.0384 16.5885 93.0879 16.3542 93.0879 16.1094C93.0879 15.8281 93.0202 15.5846 92.8848 15.3789C92.752 15.1732 92.5697 15.0143 92.3379 14.9023C92.1061 14.7904 91.8457 14.7344 91.5566 14.7344C91.2493 14.7344 90.9811 14.7982 90.752 14.9258C90.5254 15.0508 90.3496 15.2266 90.2246 15.4531C90.1022 15.6797 90.041 15.9453 90.041 16.25H89.1191C89.1191 15.7812 89.2272 15.3698 89.4434 15.0156C89.6595 14.6615 89.9538 14.3854 90.3262 14.1875C90.7012 13.9896 91.1217 13.8906 91.5879 13.8906C92.0566 13.8906 92.472 13.9896 92.834 14.1875C93.196 14.3854 93.4798 14.6523 93.6855 14.9883C93.8913 15.3242 93.9941 15.6979 93.9941 16.1094C93.9941 16.4036 93.9408 16.6914 93.834 16.9727C93.7298 17.2513 93.5475 17.5625 93.2871 17.9062C93.0293 18.2474 92.6712 18.6641 92.2129 19.1562L90.416 21.0781V21.1406H94.1348V22H89.0879Z" fill="white"/>
<defs>
<clipPath id="clip0_0_1">
<rect width="205" height="80" fill="white" transform="translate(40 40)"/>
</clipPath>
</defs>
</svg>
